0
SECTION
2
HEADER
9
$INSUNITS
70
4
9
$ACADVER
1
AC1014
9
$HANDSEED
5
FFFF
0
ENDSEC
0
SECTION
2
TABLES
0
TABLE
2
VPORT
5
8
100
AcDbSymbolTable
0
ENDTAB
0
TABLE
2
LTYPE
5
5
100
AcDbSymbolTable
0
LTYPE
5
14
100
AcDbSymbolTableRecord
100
AcDbLinetypeTableRecord
2
BYBLOCK
70
0
0
LTYPE
5
15
100
AcDbSymbolTableRecord
100
AcDbLinetypeTableRecord
2
BYLAYER
70
0
0
ENDTAB
0
TABLE
2
LAYER
5
2
100
AcDbSymbolTable
70
2
0
LAYER
5
50
100
AcDbSymbolTableRecord
100
AcDbLayerTableRecord
2
0
70
0
6
CONTINUOUS
0
ENDTAB
0
TABLE
2
STYLE
5
3
100
AcDbSymbolTable
70
1
0
STYLE
5
11
100
AcDbSymbolTableRecord
100
AcDbTextStyleTableRecord
2
STANDARD
70
0
0
ENDTAB
0
TABLE
2
VIEW
5
6
100
AcDbSymbolTable
70
0
0
ENDTAB
0
TABLE
2
UCS
5
7
100
AcDbSymbolTable
70
0
0
ENDTAB
0
TABLE
2
APPID
5
9
100
AcDbSymbolTable
70
2
0
APPID
5
12
100
AcDbSymbolTableRecord
100
AcDbRegAppTableRecord
2
ACAD
70
0
0
ENDTAB
0
TABLE
2
DIMSTYLE
5
A
100
AcDbSymbolTable
70
1
0
ENDTAB
0
TABLE
2
BLOCK_RECORD
5
1
100
AcDbSymbolTable
70
1
0
BLOCK_RECORD
5
1F
100
AcDbSymbolTableRecord
100
AcDbBlockTableRecord
2
*MODEL_SPACE
0
BLOCK_RECORD
5
1B
100
AcDbSymbolTableRecord
100
AcDbBlockTableRecord
2
*PAPER_SPACE
0
ENDTAB
0
ENDSEC
0
SECTION
2
BLOCKS
0
BLOCK
5
20
100
AcDbEntity
100
AcDbBlockBegin
2
*MODEL_SPACE
0
ENDBLK
5
21
100
AcDbEntity
100
AcDbBlockEnd
0
BLOCK
5
1C
100
AcDbEntity
100
AcDbBlockBegin
2
*PAPER_SPACE
0
ENDBLK
5
1D
100
AcDbEntity
100
AcDbBlockEnd
0
ENDSEC
0
SECTION
2
ENTITIES
0
LINE
5
100
100
AcDbEntity
8
0
100
AcDbLine
10
7.4840007031050026
20
-0.52500694836000505
30
0
11
2.5250010693160041
21
-0.52500694836000505
31
0
0
ARC
5
101
100
AcDbEntity
8
0
100
AcDbCircle
10
10.599999924907003
20
0.40055132906999746
30
0
40
3.2505552256791237
210
0
220
0
230
1
100
AcDbArc
50
196.54321918509083
51
343.45678081490917
0
LINE
5
102
100
AcDbEntity
8
0
100
AcDbLine
10
34.054999848613001
20
-0.52500694836000505
30
0
11
13.715999146710798
21
-0.52500694836053929
31
0
0
ARC
5
103
100
AcDbEntity
8
0
100
AcDbCircle
10
34.055837493138007
20
-1.0951684493500125
30
0
40
0.57016211629000191
210
-0
220
0
230
1
100
AcDbArc
50
-0.084175204942872561
51
90.084175205451004
0
ARC
5
104
100
AcDbEntity
8
0
100
AcDbCircle
10
38.125998994120998
20
-0.46934973958002418
30
0
40
3.5556572087825398
210
0
220
0
230
1
100
AcDbArc
50
190.1509464766321
51
349.84905352336983
0
ARC
5
105
100
AcDbEntity
8
0
100
AcDbCircle
10
42.196160495103996
20
-1.0951684493500125
30
0
40
0.57016211629000002
210
0
220
-0
230
1
100
AcDbArc
50
89.915824794549494
51
180.08417520494285
0
LINE
5
106
100
AcDbEntity
8
0
100
AcDbLine
10
51.620002290020004
20
-0.52500694836000505
30
0
11
42.196998139628988
21
-0.52500694836635142
31
0
0
ARC
5
107
100
AcDbEntity
8
0
100
AcDbCircle
10
51.620839934544009
20
-1.0951684493500125
30
0
40
0.57016211628999747
210
-0
220
0
230
1
100
AcDbArc
50
-0.084175204947198115
51
90.084175205350334
0
ARC
5
108
100
AcDbEntity
8
0
100
AcDbCircle
10
57.150001069315991
20
-0.32549774674001275
30
0
40
5.0185018163700743
210
0
220
0
230
1
100
AcDbArc
50
188.8317562563366
51
351.16824374366468
0
ARC
5
109
100
AcDbEntity
8
0
100
AcDbCircle
10
62.67916220408901
20
-1.0951684493500125
30
0
40
0.57016211629000002
210
0
220
-0
230
1
100
AcDbArc
50
89.915824794652309
51
180.08417520494717
0
LINE
5
110
100
AcDbEntity
8
0
100
AcDbLine
10
92.179000397930011
20
-0.52500694836000505
30
0
11
62.679999848612979
21
-0.52500694836634987
31
0
0
ARC
5
111
100
AcDbEntity
8
0
100
AcDbCircle
10
92.179838042450015
20
-1.0951684493500125
30
0
40
0.57016211628999747
210
-0
220
0
230
1
100
AcDbArc
50
-0.084175204942872561
51
90.084175204948323
0
ARC
5
112
100
AcDbEntity
8
0
100
AcDbCircle
10
96.250402410570004
20
-0.46860529499001768
30
0
40
3.556185033809609
210
0
220
0
230
1
100
AcDbArc
50
190.16160895579873
51
312.654844505065
0
ARC
5
113
100
AcDbEntity
8
0
100
AcDbCircle
10
99.225390545610011
20
-3.6500556725600219
30
0
40
0.80005298687400006
210
0
220
0
230
1
100
AcDbArc
50
90.099686581414247
51
134.96602571447707
0
ARC
5
114
100
AcDbEntity
8
0
100
AcDbCircle
10
99.450888868949988
20
0.39935279482000402
30
0
40
3.2493568139680225
210
0
220
0
230
1
100
AcDbArc
50
269.98426474687949
51
343.47254968784233
0
LINE
5
115
100
AcDbEntity
8
0
100
AcDbLine
10
183.18400528074
20
-0.52500694836000505
30
0
11
102.56599380613373
21
-0.52500694836110673
31
0
0
ARC
5
116
100
AcDbEntity
8
0
100
AcDbCircle
10
186.29911021792
20
0.39935279481995933
30
0
40
3.249356813964102
210
0
220
0
230
1
100
AcDbArc
50
196.52745031215704
51
270.01573525312051
0
LINE
5
117
100
AcDbEntity
8
0
100
AcDbLine
10
186.55400039793
20
-2.850003896610005
30
0
11
186.30000259518999
21
-2.8500038966103656
31
0
0
ARC
5
118
100
AcDbEntity
8
0
100
AcDbCircle
10
186.55531520968
20
-3.5735283512200056
30
0
40
0.72352564926700325
210
0
220
-0
230
1
100
AcDbArc
50
44.991512282652053
51
90.104119606082051
0
LINE
5
119
100
AcDbEntity
8
0
100
AcDbLine
10
99.449996491679997
20
-2.8500038966103514
30
0
11
99.223998566870009
21
-2.8500038966097425
31
0
0
ARC
5
120
100
AcDbEntity
8
0
100
AcDbCircle
10
189.49997004207
20
-0.46890207405997919
30
0
40
3.5557651725263084
210
0
220
0
230
1
100
AcDbArc
50
226.82474323532918
51
349.84203676371988
0
ARC
5
121
100
AcDbEntity
8
0
100
AcDbCircle
10
193.57017402271001
20
-1.0951814276499938
30
0
40
0.57017507565600001
210
0
220
-0
230
1
100
AcDbArc
50
89.917130872645416
51
180.08286912648933
0
LINE
5
122
100
AcDbEntity
8
0
100
AcDbLine
10
223.07000686765002
20
-0.52500694836000505
30
0
11
193.57099868893999
21
-0.52500694836761275
31
0
0
ARC
5
123
100
AcDbEntity
8
0
100
AcDbCircle
10
223.07083153388004
20
-1.0951814276499938
30
0
40
0.57017507565599046
210
-0
220
0
230
1
100
AcDbArc
50
-0.082869126348594224
51
90.082869127356332
0
ARC
5
124
100
AcDbEntity
8
0
100
AcDbCircle
10
228.59999801755004
20
-0.32550665309999782
30
0
40
5.0184929100086508
210
0
220
0
230
1
100
AcDbArc
50
188.83166915210325
51
351.16833084791847
0
ARC
5
125
100
AcDbEntity
8
0
100
AcDbCircle
10
234.12919049633001
20
-1.0952074012000068
30
0
40
0.57020103375499998
210
0
220
-0
230
1
100
AcDbArc
50
89.91821346803556
51
180.08025543857337
0
LINE
5
126
100
AcDbEntity
8
0
100
AcDbLine
10
243.55300857664002
20
-0.52500694836000505
30
0
11
234.13000442625003
21
-0.52500694836490436
31
0
0
ARC
5
127
100
AcDbEntity
8
0
100
AcDbCircle
10
243.55384397848002
20
-1.0951554557700227
30
0
40
0.57014911943198887
210
-0
220
0
230
1
100
AcDbArc
50
-0.085482884109158344
51
90.08395175073332
0
ARC
5
128
100
AcDbEntity
8
0
100
AcDbCircle
10
247.62399246335002
20
-0.46934973958001253
30
0
40
3.5556572087794516
210
0
220
0
230
1
100
AcDbArc
50
190.15094647664117
51
349.84905352336961
0
ARC
5
129
100
AcDbEntity
8
0
100
AcDbCircle
10
251.69419293774001
20
-1.0952074012000068
30
0
40
0.57020103375499998
210
0
220
-0
230
1
100
AcDbArc
50
89.91821346904085
51
180.08025543864605
0
LINE
5
130
100
AcDbEntity
8
0
100
AcDbLine
10
270.03399612546002
20
-0.52500694836000505
30
0
11
251.69500686765002
21
-0.52500694836488992
31
0
0
ARC
5
131
100
AcDbEntity
8
0
100
AcDbCircle
10
273.14999343992002
20
0.40054877281997942
30
0
40
3.2505526694288527
210
0
220
0
230
1
100
AcDbArc
50
196.54318556539778
51
343.4568144345518
0
LINE
5
132
100
AcDbEntity
8
0
100
AcDbLine
10
283.22500564695002
20
-0.52500694836000505
30
0
11
276.26599075437264
21
-0.52500694836079376
31
0
0
ARC
5
133
100
AcDbEntity
8
0
100
AcDbCircle
10
283.22428118403002
20
-2.5257314112800167
30
0
40
2.0007245940839842
210
0
220
-0
230
1
100
AcDbArc
50
0.020746817804708554
51
89.979253182192181
0
LINE
5
134
100
AcDbEntity
8
0
100
AcDbLine
10
285.22500564695002
20
-55.724996267207018
30
0
11
285.22500564694985
21
-2.5250069483600162
31
0
0
LINE
5
135
100
AcDbEntity
8
0
100
AcDbLine
10
285.22500564695002
20
-92.725000081904028
30
0
11
285.22500564695002
21
-57.925000844844021
31
0
0
ARC
5
136
100
AcDbEntity
8
0
100
AcDbCircle
10
283.22427466622003
20
-92.724269101171018
30
0
40
2.0007311142670092
210
-0
220
0
230
1
100
AcDbArc
50
270.02093340347807
51
359.97906659644832
0
LINE
5
137
100
AcDbEntity
8
0
100
AcDbLine
10
276.26599075437002
20
-94.725000081904014
30
0
11
283.22500564695002
21
-94.72500008190363
31
0
0
ARC
5
138
100
AcDbEntity
8
0
100
AcDbCircle
10
273.15089592596001
20
-95.649340945862988
30
0
40
3.24934175222785
210
0
220
-0
230
1
100
AcDbArc
50
16.527181875374197
51
90.015913574430968
0
LINE
5
139
100
AcDbEntity
8
0
100
AcDbLine
10
269.69299270750003
20
-92.39999931896503
30
0
11
273.14999343992002
21
-92.399999318965186
31
0
0
ARC
5
140
100
AcDbEntity
8
0
100
AcDbCircle
10
269.69396861114001
20
-91.485085514260021
30
0
40
0.9149143251850036
210
0
220
0
230
1
100
AcDbArc
50
224.99735419127606
51
269.93888480172797
0
ARC
5
141
100
AcDbEntity
8
0
100
AcDbCircle
10
266.67475786182001
20
-94.781897241238994
30
0
40
3.5566113005466842
210
0
220
-0
230
1
100
AcDbArc
50
48.164510273244389
51
169.83151215332526
0
ARC
5
142
100
AcDbEntity
8
0
100
AcDbCircle
10
262.60379731906005
20
-94.154786648262018
30
0
40
0.57021399616799739
210
0
220
0
230
1
100
AcDbArc
50
-90.080480379405131
51
0.078949286338512059
0
LINE
5
143
100
AcDbEntity
8
0
100
AcDbLine
10
241.25900222897999
20
-94.725000081904014
30
0
11
262.60299636960002
21
-94.725000081904057
31
0
0
ARC
5
144
100
AcDbEntity
8
0
100
AcDbCircle
10
241.25951370375003
20
-94.168488851279022
30
0
40
0.55651146566698817
210
0
220
0
230
1
100
AcDbArc
50
180.05265902205591
51
269.94734097752848
0
ARC
5
145
100
AcDbEntity
8
0
100
AcDbCircle
10
235.74400283933011
20
-94.939499659933034
30
0
40
5.0185004325490024
210
0
220
-0
230
1
100
AcDbArc
50
8.8316545730130436
51
171.16834542697978
0
ARC
5
146
100
AcDbEntity
8
0
100
AcDbCircle
10
230.22849197492002
20
-94.168488851279022
30
0
40
0.55651146566700038
210
-0
220
0
230
1
100
AcDbArc
50
270.0526590214385
51
359.94734097793719
0
LINE
5
147
100
AcDbEntity
8
0
100
AcDbLine
10
193.57099868893999
20
-94.725000081904014
30
0
11
230.22900344968002
21
-94.725000081904597
31
0
0
ARC
5
148
100
AcDbEntity
8
0
100
AcDbCircle
10
193.57018700208999
20
-94.154812623242009
30
0
40
0.570188036396993
210
0
220
0
230
1
100
AcDbArc
50
179.918437000956
51
270.08156299944903
0
ARC
5
149
100
AcDbEntity
8
0
100
AcDbCircle
10
189.50010872080003
20
-94.780121001743993
30
0
40
3.5554552600969647
210
0
220
-0
230
1
100
AcDbArc
50
10.142749593155248
51
133.40429044232067
0
ARC
5
150
100
AcDbEntity
8
0
100
AcDbCircle
10
186.56547612162998
20
-91.703434152328001
30
0
40
0.69656976794099335
210
-0
220
0
230
1
100
AcDbArc
50
270.20825528026302
51
314.88159306693052
0
LINE
5
151
100
AcDbEntity
8
0
100
AcDbLine
10
186.30000259518999
20
-92.39999931896503
30
0
11
186.56800796628002
21
-92.399999318965001
31
0
0
ARC
5
152
100
AcDbEntity
8
0
100
AcDbCircle
10
186.29910010915
20
-95.649340945863045
30
0
40
3.2493417522281827
210
0
220
-0
230
1
100
AcDbArc
50
89.984086425569032
51
163.47281812462472
0
LINE
5
153
100
AcDbEntity
8
0
100
AcDbLine
10
102.56599380613
20
-94.725000081904014
30
0
11
183.18400528073988
21
-94.725000081903971
31
0
0
ARC
5
154
100
AcDbEntity
8
0
100
AcDbCircle
10
99.450898977719987
20
-95.649340945863045
30
0
40
3.2493417522278829
210
0
220
-0
230
1
100
AcDbArc
50
16.527181875375177
51
90.015913574430968
0
LINE
5
155
100
AcDbEntity
8
0
100
AcDbLine
10
99.180007478000007
20
-92.39999931896503
30
0
11
99.449996491679997
21
-92.399999318965186
31
0
0
ARC
5
156
100
AcDbEntity
8
0
100
AcDbCircle
10
99.179829610430019
20
-91.714790728418023
30
0
40
0.68520861363199859
210
0
220
0
230
1
100
AcDbArc
50
224.96367447319707
51
270.01487293210312
0
ARC
5
157
100
AcDbEntity
8
0
100
AcDbCircle
10
96.250205790100011
20
-94.781202216223022
30
0
40
3.5559563010049877
210
0
220
-0
230
1
100
AcDbArc
50
46.565663506516643
51
169.84099646471867
0
ARC
5
158
100
AcDbEntity
8
0
100
AcDbCircle
10
92.179825063910016
20
-94.154825602377031
30
0
40
0.57017507590099337
210
0
220
0
230
1
100
AcDbArc
50
-90.082869102198615
51
0.082869102277904352
0
LINE
5
159
100
AcDbEntity
8
0
100
AcDbLine
10
55.521003266581999
20
-94.725000081904014
30
0
11
92.179000397930011
21
-94.725000081904767
31
0
0
ARC
5
160
100
AcDbEntity
8
0
100
AcDbCircle
10
55.521514741348014
20
-94.168488851279022
30
0
40
0.55651146566699694
210
0
220
0
230
1
100
AcDbArc
50
180.052659022049
51
269.94734097794253
0
ARC
5
161
100
AcDbEntity
8
0
100
AcDbCircle
10
50.006003876934003
20
-94.93949965996002
30
0
40
5.0185004325472864
210
0
220
-0
230
1
100
AcDbArc
50
8.8316545733280094
51
171.16834542667348
0
ARC
5
162
100
AcDbEntity
8
0
100
AcDbCircle
10
44.490479971154002
20
-94.168475802769009
30
0
40
0.55652451917199819
210
-0
220
0
230
1
100
AcDbArc
50
270.05321496493644
51
359.94599883134396
0
LINE
5
163
100
AcDbEntity
8
0
100
AcDbLine
10
23.146998902568004
20
-94.725000081904014
30
0
11
44.490996857890998
21
-94.725000081904909
31
0
0
ARC
5
164
100
AcDbEntity
8
0
100
AcDbCircle
10
23.146174236588003
20
-94.154825602377031
30
0
40
0.57017507590099925
210
0
220
0
230
1
100
AcDbArc
50
179.91713089770451
51
270.08286910219834
0
ARC
5
165
100
AcDbEntity
8
0
100
AcDbCircle
10
19.076030756112001
20
-94.780469364422004
30
0
40
3.5555935789839794
210
0
220
-0
230
1
100
AcDbArc
50
10.148053622859287
51
133.93523263339134
0
ARC
5
166
100
AcDbEntity
8
0
100
AcDbCircle
10
16.174140243920995
20
-91.784714273963019
30
0
40
0.61528564398000729
210
-0
220
0
230
1
100
AcDbArc
50
270.07994748270755
51
314.97206272215732
0
LINE
5
167
100
AcDbEntity
8
0
100
AcDbLine
10
12.600001832256002
20
-92.39999931896503
30
0
11
16.174998780498001
21
-92.399999318964788
31
0
0
ARC
5
168
100
AcDbEntity
8
0
100
AcDbCircle
10
12.599102399878007
20
-95.649350149462009
30
0
40
3.2493509549800952
210
0
220
-0
230
1
100
AcDbArc
50
89.984140315838886
51
163.47269699466779
0
LINE
5
169
100
AcDbEntity
8
0
100
AcDbLine
10
2.5250010693160041
20
-94.725000081904014
30
0
11
9.484000703105453
21
-94.725000081904142
31
0
0
ARC
5
170
100
AcDbEntity
8
0
100
AcDbCircle
10
2.5257320500489966
20
-92.724269101171018
30
0
40
2.0007311142670008
210
0
220
0
230
1
100
AcDbArc
50
180.02093340355168
51
269.97906659643616
0
LINE
5
171
100
AcDbEntity
8
0
100
AcDbLine
10
0.52500106931600232
20
-57.925000844844021
30
0
11
0.52500106931639401
21
-92.725000081904
31
0
0
LINE
5
172
100
AcDbEntity
8
0
100
AcDbLine
10
0.52500106931600232
20
-2.5250069483600157
30
0
11
0.52500106931600232
21
-55.724996267207018
31
0
0
ARC
5
173
100
AcDbEntity
8
0
100
AcDbCircle
10
2.5257255322360006
20
-2.5257314112800167
30
0
40
2.0007245940841263
210
0
220
0
230
1
100
AcDbArc
50
90.020746817807577
51
179.97925318219529
0
LINE
5
174
100
AcDbEntity
8
0
100
AcDbLine
10
0.52500106931600232
20
-55.724996267207018
30
0
11
0.52500106931600232
21
-57.925000844844021
31
0
0
LINE
5
175
100
AcDbEntity
8
0
100
AcDbLine
10
285.22500564695002
20
-55.724996267207018
30
0
11
285.22500564695002
21
-57.925000844844021
31
0
0
ENDSEC
0
SECTION
2
OBJECTS
0
DICTIONARY
5
C
100
AcDbDictionary
3
ACAD_GROUP
350
D
3
ACAD_MLINESTYLE
350
17
0
DICTIONARY
5
D
100
AcDbDictionary
0
DICTIONARY
5
1A
330
C
100
AcDbDictionary
0
DICTIONARY
5
17
100
AcDbDictionary
0
ENDSEC
0
EOF
