G04 #@! TF.GenerationSoftware,KiCad,Pcbnew,(5.99.0-9972-g9020611657)*
G04 #@! TF.CreationDate,2021-03-30T08:21:05+08:00*
G04 #@! TF.ProjectId,plain60-c,706c6169-6e36-4302-9d63-2e6b69636164,rev?*
G04 #@! TF.SameCoordinates,Original*
G04 #@! TF.FileFunction,Profile,NP*
%FSLAX46Y46*%
G04 Gerber Fmt 4.6, Leading zero omitted, Abs format (unit mm)*
G04 Created by KiCad (PCBNEW (5.99.0-9972-g9020611657)) date 2021-03-30 08:21:05*
%MOMM*%
%LPD*%
G01*
G04 APERTURE LIST*
G04 #@! TA.AperFunction,Profile*
%ADD10C,0.050000*%
G04 #@! TD*
G04 APERTURE END LIST*
D10*
X285225005Y-55724996D02*
X285225005Y-57925000D01*
X525001Y-55724996D02*
X525001Y-57925000D01*
X525000Y-2525006D02*
G75*
G02*
X2525001Y-525006I2000725J-725D01*
G01*
X525001Y-2525006D02*
X525001Y-55724996D01*
X525001Y-57925000D02*
X525001Y-92725000D01*
X2525001Y-94725000D02*
G75*
G02*
X525001Y-92725000I731J2000731D01*
G01*
X2525001Y-94725000D02*
X9484000Y-94725000D01*
X9484000Y-94725000D02*
G75*
G02*
X12600001Y-92399999I3115102J-924350D01*
G01*
X12600001Y-92399999D02*
X16174998Y-92399999D01*
X16609000Y-92219999D02*
G75*
G02*
X16174998Y-92399999I-434860J435285D01*
G01*
X16608999Y-92219999D02*
G75*
G02*
X22575999Y-94154000I2467031J-2560470D01*
G01*
X23146998Y-94725000D02*
G75*
G02*
X22575999Y-94154000I-824J570175D01*
G01*
X23146998Y-94725000D02*
X44490996Y-94725000D01*
X45047004Y-94168999D02*
G75*
G02*
X44490996Y-94725000I-556525J524D01*
G01*
X45047003Y-94168999D02*
G75*
G02*
X54965003Y-94169000I4959000J-770500D01*
G01*
X55521003Y-94724999D02*
G75*
G02*
X54965003Y-94169000I511J556511D01*
G01*
X55521003Y-94725000D02*
X92179000Y-94725000D01*
X92750000Y-94154001D02*
G75*
G02*
X92179000Y-94725000I-570175J-824D01*
G01*
X92749999Y-94154001D02*
G75*
G02*
X98695006Y-92198999I3500206J-627201D01*
G01*
X99180007Y-92399999D02*
G75*
G02*
X98695006Y-92198999I-178J685209D01*
G01*
X99180007Y-92399999D02*
X99449996Y-92399999D01*
X99449996Y-92399998D02*
G75*
G02*
X102565993Y-94725000I902J-3249342D01*
G01*
X102565993Y-94725000D02*
X183184005Y-94725000D01*
X183184006Y-94725000D02*
G75*
G02*
X186300002Y-92399999I3115094J-924340D01*
G01*
X186300002Y-92399999D02*
X186568007Y-92399999D01*
X187057006Y-92197001D02*
G75*
G02*
X186568007Y-92399999I-491530J493567D01*
G01*
X187057005Y-92197000D02*
G75*
G02*
X192999999Y-94154000I2443103J-2583121D01*
G01*
X193570998Y-94725000D02*
G75*
G02*
X192999999Y-94154000I-811J570188D01*
G01*
X193570998Y-94725000D02*
X230229003Y-94725000D01*
X230785003Y-94168999D02*
G75*
G02*
X230229003Y-94725000I-556512J511D01*
G01*
X230785002Y-94168999D02*
G75*
G02*
X240703002Y-94169000I4959000J-770500D01*
G01*
X241259002Y-94724999D02*
G75*
G02*
X240703002Y-94169000I511J556511D01*
G01*
X241259002Y-94725000D02*
X262602996Y-94725000D01*
X263174011Y-94154000D02*
G75*
G02*
X262602996Y-94725000I-570214J-786D01*
G01*
X263174009Y-94154001D02*
G75*
G02*
X269046996Y-92131997I3500748J-627896D01*
G01*
X269692992Y-92399998D02*
G75*
G02*
X269046996Y-92131997I976J914913D01*
G01*
X269692992Y-92399999D02*
X273149993Y-92399999D01*
X273149993Y-92399998D02*
G75*
G02*
X276265990Y-94725000I902J-3249342D01*
G01*
X276265990Y-94725000D02*
X283225005Y-94725000D01*
X285225005Y-92725000D02*
G75*
G02*
X283225005Y-94725000I-2000731J731D01*
G01*
X285225005Y-92725000D02*
X285225005Y-57925000D01*
X285225005Y-55724996D02*
X285225005Y-2525006D01*
X283225005Y-525007D02*
G75*
G02*
X285225005Y-2525006I-724J-2000724D01*
G01*
X283225005Y-525006D02*
X276265990Y-525006D01*
X276265989Y-525009D02*
G75*
G02*
X270033996Y-525006I-3115996J925557D01*
G01*
X270033996Y-525006D02*
X251695006Y-525006D01*
X251123991Y-1096006D02*
G75*
G02*
X251695006Y-525006I570201J799D01*
G01*
X251123992Y-1096005D02*
G75*
G02*
X244123992Y-1096006I-3500000J626656D01*
G01*
X243553008Y-525006D02*
G75*
G02*
X244123992Y-1096006I835J-570149D01*
G01*
X243553008Y-525006D02*
X234130004Y-525006D01*
X233558989Y-1096006D02*
G75*
G02*
X234130004Y-525006I570201J799D01*
G01*
X233558990Y-1096005D02*
G75*
G02*
X223641006Y-1096006I-4958992J770499D01*
G01*
X223070007Y-525006D02*
G75*
G02*
X223641006Y-1096006I824J-570175D01*
G01*
X223070006Y-525006D02*
X193570998Y-525006D01*
X192999999Y-1096006D02*
G75*
G02*
X193570998Y-525006I570175J825D01*
G01*
X193000000Y-1096007D02*
G75*
G02*
X187067000Y-3061994I-3500030J627105D01*
G01*
X99449996Y-2850003D02*
X99223998Y-2850003D01*
X186554000Y-2850004D02*
G75*
G02*
X187067000Y-3061994I1315J-723524D01*
G01*
X186554000Y-2850003D02*
X186300002Y-2850003D01*
X186300001Y-2850004D02*
G75*
G02*
X183184005Y-525006I-891J3249356D01*
G01*
X183184005Y-525006D02*
X102565993Y-525006D01*
X102565991Y-525007D02*
G75*
G02*
X99449996Y-2850003I-3115103J924359D01*
G01*
X98660003Y-3083997D02*
G75*
G02*
X99223998Y-2850003I565387J-566058D01*
G01*
X98660003Y-3083997D02*
G75*
G02*
X92749999Y-1096006I-2409601J2615392D01*
G01*
X92179001Y-525007D02*
G75*
G02*
X92749999Y-1096006I837J-570161D01*
G01*
X92179000Y-525006D02*
X62679999Y-525006D01*
X62109000Y-1096006D02*
G75*
G02*
X62679999Y-525006I570162J838D01*
G01*
X62109001Y-1096005D02*
G75*
G02*
X52191001Y-1096006I-4959000J770508D01*
G01*
X51620002Y-525006D02*
G75*
G02*
X52191001Y-1096006I837J-570162D01*
G01*
X51620002Y-525006D02*
X42196998Y-525006D01*
X41625998Y-1096005D02*
G75*
G02*
X42196998Y-525006I570162J837D01*
G01*
X41625998Y-1096005D02*
G75*
G02*
X34625998Y-1096006I-3500000J626656D01*
G01*
X34055000Y-525007D02*
G75*
G02*
X34625998Y-1096006I837J-570161D01*
G01*
X34054999Y-525006D02*
X13715999Y-525006D01*
X13715998Y-525008D02*
G75*
G02*
X7484000Y-525006I-3115999J925559D01*
G01*
X7484000Y-525006D02*
X2525001Y-525006D01*
M02*
