G04 #@! TF.GenerationSoftware,KiCad,Pcbnew,(5.99.0-9972-g9020611657)*
G04 #@! TF.CreationDate,2021-03-30T08:21:05+08:00*
G04 #@! TF.ProjectId,plain60-c,706c6169-6e36-4302-9d63-2e6b69636164,rev?*
G04 #@! TF.SameCoordinates,Original*
G04 #@! TF.FileFunction,Soldermask,Bot*
G04 #@! TF.FilePolarity,Negative*
%FSLAX46Y46*%
G04 Gerber Fmt 4.6, Leading zero omitted, Abs format (unit mm)*
G04 Created by KiCad (PCBNEW (5.99.0-9972-g9020611657)) date 2021-03-30 08:21:05*
%MOMM*%
%LPD*%
G01*
G04 APERTURE LIST*
G04 Aperture macros list*
%AMRoundRect*
0 Rectangle with rounded corners*
0 $1 Rounding radius*
0 $2 $3 $4 $5 $6 $7 $8 $9 X,Y pos of 4 corners*
0 Add a 4 corners polygon primitive as box body*
4,1,4,$2,$3,$4,$5,$6,$7,$8,$9,$2,$3,0*
0 Add four circle primitives for the rounded corners*
1,1,$1+$1,$2,$3*
1,1,$1+$1,$4,$5*
1,1,$1+$1,$6,$7*
1,1,$1+$1,$8,$9*
0 Add four rect primitives between the rounded corners*
20,1,$1+$1,$2,$3,$4,$5,0*
20,1,$1+$1,$4,$5,$6,$7,0*
20,1,$1+$1,$6,$7,$8,$9,0*
20,1,$1+$1,$8,$9,$2,$3,0*%
G04 Aperture macros list end*
%ADD10C,2.286000*%
%ADD11C,1.701800*%
%ADD12C,3.987800*%
%ADD13C,3.048000*%
%ADD14O,10.000000X5.000000*%
%ADD15C,5.500000*%
%ADD16R,1.400000X1.200000*%
%ADD17R,0.550000X1.500000*%
%ADD18R,1.500000X0.550000*%
%ADD19R,2.000000X0.400000*%
%ADD20R,1.700000X1.000000*%
%ADD21R,1.000000X1.300000*%
%ADD22R,1.300000X1.000000*%
%ADD23C,0.650000*%
%ADD24R,0.600000X1.450000*%
%ADD25R,0.300000X1.450000*%
%ADD26O,1.000000X2.100000*%
%ADD27O,1.000000X1.600000*%
%ADD28R,1.000000X1.250000*%
%ADD29R,0.600000X1.200000*%
%ADD30R,1.700000X1.700000*%
%ADD31O,1.700000X1.700000*%
%ADD32RoundRect,0.150000X-0.775000X0.150000X-0.775000X-0.150000X0.775000X-0.150000X0.775000X0.150000X0*%
%ADD33RoundRect,0.332800X-0.567200X0.467200X-0.567200X-0.467200X0.567200X-0.467200X0.567200X0.467200X0*%
%ADD34R,2.500000X2.500000*%
G04 APERTURE END LIST*
D10*
X78740000Y-23495000D03*
X72390000Y-26035000D03*
D11*
X71120000Y-28575000D03*
X81280000Y-28575000D03*
D12*
X76200000Y-28575000D03*
D10*
X97790000Y-23495000D03*
X91440000Y-26035000D03*
D11*
X90170000Y-28575000D03*
X100330000Y-28575000D03*
D12*
X95250000Y-28575000D03*
D10*
X154940000Y-23495000D03*
X148590000Y-26035000D03*
D11*
X157480000Y-28575000D03*
X147320000Y-28575000D03*
D12*
X152400000Y-28575000D03*
D10*
X173990000Y-23495000D03*
X167640000Y-26035000D03*
D12*
X171450000Y-28575000D03*
D11*
X176530000Y-28575000D03*
X166370000Y-28575000D03*
D10*
X40640000Y-23495000D03*
X34290000Y-26035000D03*
D12*
X38100000Y-28575000D03*
D11*
X33020000Y-28575000D03*
X43180000Y-28575000D03*
D10*
X135890000Y-23495000D03*
X129540000Y-26035000D03*
D11*
X128270000Y-28575000D03*
X138430000Y-28575000D03*
D12*
X133350000Y-28575000D03*
D10*
X116840000Y-23495000D03*
X110490000Y-26035000D03*
D12*
X114300000Y-28575000D03*
D11*
X109220000Y-28575000D03*
X119380000Y-28575000D03*
D10*
X59690000Y-23495000D03*
X53340000Y-26035000D03*
D11*
X52070000Y-28575000D03*
X62230000Y-28575000D03*
D12*
X57150000Y-28575000D03*
D10*
X16827500Y-23495000D03*
X10477500Y-26035000D03*
D12*
X14287500Y-28575000D03*
D11*
X9207500Y-28575000D03*
X19367500Y-28575000D03*
D13*
X254762000Y-2540000D03*
D12*
X266700000Y-9525000D03*
D13*
X278638000Y-2540000D03*
D11*
X261620000Y-9525000D03*
D12*
X278638000Y-17780000D03*
X254762000Y-17780000D03*
D11*
X271780000Y-9525000D03*
D10*
X269240000Y-4445000D03*
X262890000Y-6985000D03*
X145415000Y-4445000D03*
X139065000Y-6985000D03*
D11*
X147955000Y-9525000D03*
X137795000Y-9525000D03*
D12*
X142875000Y-9525000D03*
D10*
X183515000Y-4445000D03*
X177165000Y-6985000D03*
D11*
X186055000Y-9525000D03*
X175895000Y-9525000D03*
D12*
X180975000Y-9525000D03*
D10*
X259715000Y-4445000D03*
X253365000Y-6985000D03*
D12*
X257175000Y-9525000D03*
D11*
X252095000Y-9525000D03*
X262255000Y-9525000D03*
D10*
X88265000Y-4445000D03*
X81915000Y-6985000D03*
D11*
X80645000Y-9525000D03*
D12*
X85725000Y-9525000D03*
D11*
X90805000Y-9525000D03*
D10*
X240665000Y-4445000D03*
X234315000Y-6985000D03*
D11*
X233045000Y-9525000D03*
D12*
X238125000Y-9525000D03*
D11*
X243205000Y-9525000D03*
D10*
X221615000Y-4445000D03*
X215265000Y-6985000D03*
D12*
X219075000Y-9525000D03*
D11*
X224155000Y-9525000D03*
X213995000Y-9525000D03*
D10*
X202565000Y-4445000D03*
X196215000Y-6985000D03*
D11*
X205105000Y-9525000D03*
D12*
X200025000Y-9525000D03*
D11*
X194945000Y-9525000D03*
D10*
X164465000Y-4445000D03*
X158115000Y-6985000D03*
D11*
X167005000Y-9525000D03*
X156845000Y-9525000D03*
D12*
X161925000Y-9525000D03*
D10*
X126365000Y-4445000D03*
X120015000Y-6985000D03*
D11*
X128905000Y-9525000D03*
D12*
X123825000Y-9525000D03*
D11*
X118745000Y-9525000D03*
D10*
X107315000Y-4445000D03*
X100965000Y-6985000D03*
D12*
X104775000Y-9525000D03*
D11*
X99695000Y-9525000D03*
X109855000Y-9525000D03*
D10*
X69215000Y-4445000D03*
X62865000Y-6985000D03*
D11*
X71755000Y-9525000D03*
D12*
X66675000Y-9525000D03*
D11*
X61595000Y-9525000D03*
D10*
X31115000Y-4445000D03*
X24765000Y-6985000D03*
D11*
X33655000Y-9525000D03*
X23495000Y-9525000D03*
D12*
X28575000Y-9525000D03*
D10*
X12065000Y-4445000D03*
X5715000Y-6985000D03*
D12*
X9525000Y-9525000D03*
D11*
X4445000Y-9525000D03*
X14605000Y-9525000D03*
D10*
X50165000Y-4445000D03*
X43815000Y-6985000D03*
D12*
X47625000Y-9525000D03*
D11*
X42545000Y-9525000D03*
X52705000Y-9525000D03*
D10*
X40640000Y-80645000D03*
X34290000Y-83185000D03*
D11*
X43180000Y-85725000D03*
D12*
X38100000Y-85725000D03*
D11*
X33020000Y-85725000D03*
D10*
X204946250Y-80645000D03*
X198596250Y-83185000D03*
D11*
X197326250Y-85725000D03*
D12*
X202406250Y-85725000D03*
D11*
X207486250Y-85725000D03*
D10*
X150177500Y-61595000D03*
X143827500Y-64135000D03*
D11*
X152717500Y-66675000D03*
X142557500Y-66675000D03*
D12*
X147637500Y-66675000D03*
D10*
X252571460Y-61595056D03*
X246221460Y-64135056D03*
D11*
X244951460Y-66675056D03*
X255111460Y-66675056D03*
D12*
X250031460Y-66675056D03*
D10*
X14446250Y-42545000D03*
X8096250Y-45085000D03*
D11*
X16986250Y-47625000D03*
X6826250Y-47625000D03*
D12*
X11906250Y-47625000D03*
D10*
X226377500Y-61595000D03*
X220027500Y-64135000D03*
D12*
X223837500Y-66675000D03*
D11*
X228917500Y-66675000D03*
X218757500Y-66675000D03*
D10*
X169227500Y-61595000D03*
X162877500Y-64135000D03*
D11*
X171767500Y-66675000D03*
D12*
X166687500Y-66675000D03*
D11*
X161607500Y-66675000D03*
D10*
X207327500Y-61595000D03*
X200977500Y-64135000D03*
D11*
X209867500Y-66675000D03*
D12*
X204787500Y-66675000D03*
D11*
X199707500Y-66675000D03*
D10*
X131127500Y-61595000D03*
X124777500Y-64135000D03*
D11*
X123507500Y-66675000D03*
D12*
X128587500Y-66675000D03*
D11*
X133667500Y-66675000D03*
D10*
X188277500Y-61595000D03*
X181927500Y-64135000D03*
D11*
X190817500Y-66675000D03*
D12*
X185737500Y-66675000D03*
D11*
X180657500Y-66675000D03*
D10*
X16827500Y-80645000D03*
X10477500Y-83185000D03*
D11*
X19367500Y-85725000D03*
X9207500Y-85725000D03*
D12*
X14287500Y-85725000D03*
D10*
X14446250Y-61595000D03*
X8096250Y-64135000D03*
D11*
X6826250Y-66675000D03*
X16986250Y-66675000D03*
D12*
X11906250Y-66675000D03*
D10*
X278765000Y-4445000D03*
X272415000Y-6985000D03*
D12*
X276225000Y-9525000D03*
D11*
X271145000Y-9525000D03*
X281305000Y-9525000D03*
D10*
X276383750Y-80645072D03*
X270033750Y-83185072D03*
D11*
X268763750Y-85725072D03*
X278923750Y-85725072D03*
D12*
X273843750Y-85725072D03*
D10*
X252571250Y-80645000D03*
X246221250Y-83185000D03*
D11*
X255111250Y-85725000D03*
D12*
X250031250Y-85725000D03*
D11*
X244951250Y-85725000D03*
D10*
X250190000Y-23495000D03*
X243840000Y-26035000D03*
D11*
X252730000Y-28575000D03*
X242570000Y-28575000D03*
D12*
X247650000Y-28575000D03*
D10*
X54927500Y-61595000D03*
X48577500Y-64135000D03*
D11*
X47307500Y-66675000D03*
D12*
X52387500Y-66675000D03*
D11*
X57467500Y-66675000D03*
D10*
X193040000Y-23495000D03*
X186690000Y-26035000D03*
D11*
X195580000Y-28575000D03*
D12*
X190500000Y-28575000D03*
D11*
X185420000Y-28575000D03*
D10*
X121602500Y-42545000D03*
X115252500Y-45085000D03*
D11*
X124142500Y-47625000D03*
D12*
X119062500Y-47625000D03*
D11*
X113982500Y-47625000D03*
D10*
X64452500Y-42545000D03*
X58102500Y-45085000D03*
D11*
X66992500Y-47625000D03*
X56832500Y-47625000D03*
D12*
X61912500Y-47625000D03*
D10*
X62071250Y-80645000D03*
X55721250Y-83185000D03*
D11*
X54451250Y-85725000D03*
X64611250Y-85725000D03*
D12*
X59531250Y-85725000D03*
D10*
X266858750Y-42545000D03*
X260508750Y-45085000D03*
D11*
X259238750Y-47625000D03*
D12*
X264318750Y-47625000D03*
D11*
X269398750Y-47625000D03*
D12*
X252380750Y-55880000D03*
X276256750Y-55880000D03*
D13*
X252380750Y-40640000D03*
X276256750Y-40640000D03*
D10*
X228758750Y-80645000D03*
X222408750Y-83185000D03*
D11*
X231298750Y-85725000D03*
X221138750Y-85725000D03*
D12*
X226218750Y-85725000D03*
D10*
X278765000Y-61595000D03*
X272415000Y-64135000D03*
D11*
X271145000Y-66675000D03*
D12*
X276225000Y-66675000D03*
D11*
X281305000Y-66675000D03*
D10*
X178752500Y-42545000D03*
X172402500Y-45085000D03*
D11*
X171132500Y-47625000D03*
X181292500Y-47625000D03*
D12*
X176212500Y-47625000D03*
D10*
X14446250Y-80645000D03*
X8096250Y-83185000D03*
D11*
X16986250Y-85725000D03*
D12*
X11906250Y-85725000D03*
D11*
X6826250Y-85725000D03*
D10*
X274002500Y-23495000D03*
X267652500Y-26035000D03*
D12*
X271462500Y-28575000D03*
D11*
X266382500Y-28575000D03*
X276542500Y-28575000D03*
D10*
X231140000Y-23495000D03*
X224790000Y-26035000D03*
D11*
X223520000Y-28575000D03*
X233680000Y-28575000D03*
D12*
X228600000Y-28575000D03*
D10*
X64452500Y-80645000D03*
X58102500Y-83185000D03*
D11*
X56832500Y-85725000D03*
D12*
X61912500Y-85725000D03*
D11*
X66992500Y-85725000D03*
D10*
X93027500Y-61595000D03*
X86677500Y-64135000D03*
D11*
X85407500Y-66675000D03*
X95567500Y-66675000D03*
D12*
X90487500Y-66675000D03*
D10*
X83502500Y-42545000D03*
X77152500Y-45085000D03*
D11*
X86042500Y-47625000D03*
X75882500Y-47625000D03*
D12*
X80962500Y-47625000D03*
D10*
X35877500Y-61595000D03*
X29527500Y-64135000D03*
D12*
X33337500Y-66675000D03*
D11*
X38417500Y-66675000D03*
X28257500Y-66675000D03*
D10*
X254952500Y-42545000D03*
X248602500Y-45085000D03*
D12*
X252412500Y-47625000D03*
D11*
X257492500Y-47625000D03*
X247332500Y-47625000D03*
D10*
X159702500Y-42545000D03*
X153352500Y-45085000D03*
D12*
X157162500Y-47625000D03*
D11*
X162242500Y-47625000D03*
X152082500Y-47625000D03*
D10*
X102552500Y-42545000D03*
X96202500Y-45085000D03*
D11*
X94932500Y-47625000D03*
D12*
X100012500Y-47625000D03*
D11*
X105092500Y-47625000D03*
D10*
X45402500Y-42545000D03*
X39052500Y-45085000D03*
D11*
X47942500Y-47625000D03*
D12*
X42862500Y-47625000D03*
D11*
X37782500Y-47625000D03*
D10*
X197802500Y-42545000D03*
X191452500Y-45085000D03*
D11*
X190182500Y-47625000D03*
D12*
X195262500Y-47625000D03*
D11*
X200342500Y-47625000D03*
D10*
X23971250Y-61595000D03*
X17621250Y-64135000D03*
D13*
X33369250Y-59690000D03*
D12*
X33369250Y-74930000D03*
D13*
X9493250Y-59690000D03*
D11*
X16351250Y-66675000D03*
D12*
X21431250Y-66675000D03*
D11*
X26511250Y-66675000D03*
D12*
X9493250Y-74930000D03*
D10*
X235902500Y-42545000D03*
X229552500Y-45085000D03*
D11*
X228282500Y-47625000D03*
X238442500Y-47625000D03*
D12*
X233362500Y-47625000D03*
D10*
X216852500Y-42545000D03*
X210502500Y-45085000D03*
D12*
X214312500Y-47625000D03*
D11*
X209232500Y-47625000D03*
X219392500Y-47625000D03*
D10*
X212090000Y-23495000D03*
X205740000Y-26035000D03*
D11*
X204470000Y-28575000D03*
D12*
X209550000Y-28575000D03*
D11*
X214630000Y-28575000D03*
D10*
X140652500Y-42545000D03*
X134302500Y-45085000D03*
D11*
X143192500Y-47625000D03*
X133032500Y-47625000D03*
D12*
X138112500Y-47625000D03*
D10*
X19208750Y-42545000D03*
X12858750Y-45085000D03*
D12*
X16668750Y-47625000D03*
D11*
X11588750Y-47625000D03*
X21748750Y-47625000D03*
D10*
X112077500Y-61595000D03*
X105727500Y-64135000D03*
D12*
X109537500Y-66675000D03*
D11*
X114617500Y-66675000D03*
X104457500Y-66675000D03*
D10*
X250190000Y-80645000D03*
X243840000Y-83185000D03*
D11*
X242570000Y-85725000D03*
X252730000Y-85725000D03*
D12*
X247650000Y-85725000D03*
D10*
X38258750Y-80645000D03*
X31908750Y-83185000D03*
D12*
X35718750Y-85725000D03*
D11*
X40798750Y-85725000D03*
X30638750Y-85725000D03*
D10*
X73977500Y-61595000D03*
X67627500Y-64135000D03*
D11*
X66357500Y-66675000D03*
D12*
X71437500Y-66675000D03*
D11*
X76517500Y-66675000D03*
D10*
X226377500Y-80645000D03*
X220027500Y-83185000D03*
D11*
X218757500Y-85725000D03*
X228917500Y-85725000D03*
D12*
X223837500Y-85725000D03*
D10*
X274002728Y-80645072D03*
X267652728Y-83185072D03*
D11*
X276542728Y-85725072D03*
D12*
X271462728Y-85725072D03*
D11*
X266382728Y-85725072D03*
D14*
X2381252Y-57125000D03*
X283368988Y-57125000D03*
D10*
X262096468Y-61595000D03*
X255746468Y-64135000D03*
D12*
X271494468Y-74930000D03*
D11*
X254476468Y-66675000D03*
D13*
X271494468Y-59690000D03*
D12*
X259556468Y-66675000D03*
D11*
X264636468Y-66675000D03*
D12*
X247618468Y-74930000D03*
D13*
X247618468Y-59690000D03*
X181006750Y-92710000D03*
X80930750Y-92710000D03*
D12*
X181006750Y-77470000D03*
X80930750Y-77470000D03*
D10*
X133508750Y-80645000D03*
X127158750Y-83185000D03*
D11*
X136048750Y-85725000D03*
X125888750Y-85725000D03*
D12*
X130968750Y-85725000D03*
D15*
X26625000Y-85725072D03*
X142875000Y-37750000D03*
X260430000Y-85725072D03*
X260425000Y-28227050D03*
X25600000Y-28575024D03*
X128587608Y-47425040D03*
X190500160Y-85525000D03*
D12*
X85693250Y-77470000D03*
D13*
X85693250Y-92710000D03*
X200056750Y-92710000D03*
D12*
X200056750Y-77470000D03*
D10*
X145415000Y-80645000D03*
X139065000Y-83185000D03*
D11*
X147955000Y-85725000D03*
D12*
X142875000Y-85725000D03*
D11*
X137795000Y-85725000D03*
D10*
X276383980Y-33020000D03*
X270033980Y-35560000D03*
D11*
X268763980Y-38100000D03*
D12*
X273843980Y-38100000D03*
D13*
X280828980Y-26162000D03*
D11*
X278923980Y-38100000D03*
D12*
X265588980Y-26162000D03*
X265588980Y-50038000D03*
D13*
X280828980Y-50038000D03*
D16*
X239911139Y-88115698D03*
X239911139Y-85715698D03*
X216098619Y-88115698D03*
X216098619Y-85715698D03*
X210145489Y-88115698D03*
X210145489Y-85715698D03*
X150614189Y-88115698D03*
X150614189Y-85715698D03*
X69651621Y-88115698D03*
X69651621Y-85715698D03*
X268486163Y-69065682D03*
X268486163Y-66665682D03*
X242292391Y-69065682D03*
X242292391Y-66665682D03*
X216098619Y-69065682D03*
X216098619Y-66665682D03*
X197048603Y-69065682D03*
X197048603Y-66665682D03*
X139898555Y-69065682D03*
X139898555Y-66665682D03*
X101798523Y-69065682D03*
X101798523Y-66665682D03*
X82748507Y-69065682D03*
X82748507Y-66665682D03*
X220861123Y-30965650D03*
X220861123Y-28565650D03*
X225623627Y-50015666D03*
X225623627Y-47615666D03*
X49410979Y-30965650D03*
X49410979Y-28565650D03*
X182761091Y-30965650D03*
X182761091Y-28565650D03*
X206573611Y-50015666D03*
X206573611Y-47615666D03*
X111323531Y-50015666D03*
X111323531Y-47615666D03*
X24407833Y-50015666D03*
X24407833Y-47615666D03*
X187523595Y-50015666D03*
X187523595Y-47615666D03*
X145851685Y-50015666D03*
X145851685Y-47615666D03*
X50601605Y-50015666D03*
X50601605Y-47615666D03*
X73223499Y-50015666D03*
X73223499Y-47615666D03*
X106561027Y-30965650D03*
X106561027Y-28565650D03*
X201811107Y-30965650D03*
X201811107Y-28565650D03*
X125611043Y-30965650D03*
X125611043Y-28565650D03*
X163711075Y-30965650D03*
X163711075Y-28565650D03*
X244673643Y-50015666D03*
X244673643Y-47615666D03*
X149423563Y-50015666D03*
X149423563Y-47615666D03*
X92273515Y-50015666D03*
X92273515Y-47615666D03*
X60126613Y-69065682D03*
X60126613Y-66665682D03*
X158948571Y-69065682D03*
X158948571Y-66665682D03*
X272058041Y-50015666D03*
X272058041Y-47615666D03*
X51792231Y-88115698D03*
X51792231Y-85715698D03*
X168473579Y-50015666D03*
X168473579Y-47615666D03*
X87511011Y-30965650D03*
X87511011Y-28565650D03*
X239911139Y-30965650D03*
X239911139Y-28565650D03*
X54173483Y-50015666D03*
X54173483Y-47615666D03*
X144661059Y-30965650D03*
X144661059Y-28565650D03*
X177998587Y-69065682D03*
X177998587Y-66665682D03*
X120848539Y-69065682D03*
X120848539Y-66665682D03*
X68460995Y-30965650D03*
X68460995Y-28565650D03*
D17*
X109965714Y-85471942D03*
X109165714Y-85471942D03*
X108365714Y-85471942D03*
X107565714Y-85471942D03*
X106765714Y-85471942D03*
X105965714Y-85471942D03*
X105165714Y-85471942D03*
X104365714Y-85471942D03*
X103565714Y-85471942D03*
X102765714Y-85471942D03*
X101965714Y-85471942D03*
D18*
X100265714Y-83771942D03*
X100265714Y-82971942D03*
X100265714Y-82171942D03*
X100265714Y-81371942D03*
X100265714Y-80571942D03*
X100265714Y-79771942D03*
X100265714Y-78971942D03*
X100265714Y-78171942D03*
X100265714Y-77371942D03*
X100265714Y-76571942D03*
X100265714Y-75771942D03*
D17*
X101965714Y-74071942D03*
X102765714Y-74071942D03*
X103565714Y-74071942D03*
X104365714Y-74071942D03*
X105165714Y-74071942D03*
X105965714Y-74071942D03*
X106765714Y-74071942D03*
X107565714Y-74071942D03*
X108365714Y-74071942D03*
X109165714Y-74071942D03*
X109965714Y-74071942D03*
D18*
X111665714Y-75771942D03*
X111665714Y-76571942D03*
X111665714Y-77371942D03*
X111665714Y-78171942D03*
X111665714Y-78971942D03*
X111665714Y-79771942D03*
X111665714Y-80571942D03*
X111665714Y-81371942D03*
X111665714Y-82171942D03*
X111665714Y-82971942D03*
X111665714Y-83771942D03*
D19*
X94059454Y-77976629D03*
X94059454Y-80376629D03*
X94059454Y-79176629D03*
D20*
X27806276Y-45725040D03*
X34106276Y-45725040D03*
X34106276Y-49525040D03*
X27806276Y-49525040D03*
D21*
X118376661Y-73223499D03*
X116176661Y-73223499D03*
D16*
X173236083Y-11915634D03*
X173236083Y-9515634D03*
X249436147Y-11915634D03*
X249436147Y-9515634D03*
X154186067Y-11915634D03*
X154186067Y-9515634D03*
X230386131Y-11915634D03*
X230386131Y-9515634D03*
X192286099Y-11915634D03*
X192286099Y-9515634D03*
X245864269Y-11915634D03*
X245864269Y-9515634D03*
X45839101Y-30965650D03*
X45839101Y-28565650D03*
X6548443Y-30965650D03*
X6548443Y-28565650D03*
X211336115Y-11915634D03*
X211336115Y-9515634D03*
X116086035Y-11915634D03*
X116086035Y-9515634D03*
X55364109Y-11915634D03*
X55364109Y-9515634D03*
X77986003Y-11915634D03*
X77986003Y-9515634D03*
X135136051Y-11915634D03*
X135136051Y-9515634D03*
X97036019Y-11915634D03*
X97036019Y-9515634D03*
X58935987Y-11915634D03*
X58935987Y-9515634D03*
X233958009Y-88115698D03*
X233958009Y-85715698D03*
D22*
X17859390Y-17768764D03*
X17859390Y-15568764D03*
D23*
X15678000Y-5630000D03*
X21458000Y-5630000D03*
D24*
X15343000Y-7075000D03*
X16118000Y-7075000D03*
D25*
X16818000Y-7075000D03*
X17318000Y-7075000D03*
X17818000Y-7075000D03*
X18318000Y-7075000D03*
X18818000Y-7075000D03*
X19318000Y-7075000D03*
X19818000Y-7075000D03*
X20318000Y-7075000D03*
D24*
X21018000Y-7075000D03*
X21793000Y-7075000D03*
D26*
X22888000Y-6160000D03*
X14248000Y-6160000D03*
D27*
X22888000Y-1980000D03*
X14248000Y-1980000D03*
D16*
X63698491Y-69065682D03*
X63698491Y-66665682D03*
D28*
X118276661Y-82748507D03*
X116276661Y-82748507D03*
X118276661Y-75604751D03*
X116276661Y-75604751D03*
D16*
X41076597Y-69065682D03*
X41076597Y-66665682D03*
X236339261Y-30965650D03*
X236339261Y-28565650D03*
D22*
X15478138Y-18959390D03*
X15478138Y-16759390D03*
D16*
X36314093Y-11915634D03*
X36314093Y-9515634D03*
X44648475Y-69065682D03*
X44648475Y-66665682D03*
D22*
X20240642Y-15568764D03*
X20240642Y-17768764D03*
D28*
X95059454Y-86915698D03*
X93059454Y-86915698D03*
X93059454Y-84534446D03*
X95059454Y-84534446D03*
D21*
X116176661Y-85129759D03*
X118376661Y-85129759D03*
D22*
X22621894Y-11996886D03*
X22621894Y-14196886D03*
D16*
X39885971Y-11915634D03*
X39885971Y-9515634D03*
X45839101Y-88115698D03*
X45839101Y-85715698D03*
D29*
X18100016Y-11351573D03*
X19050016Y-11351573D03*
X20000016Y-11351573D03*
X20000016Y-13651573D03*
X19050016Y-13651573D03*
X18100016Y-13651573D03*
D30*
X114736661Y-88622263D03*
D31*
X114736661Y-91162263D03*
X117276661Y-88622263D03*
X117276661Y-91162263D03*
X119816661Y-88622263D03*
X119816661Y-91162263D03*
D22*
X15478138Y-14196886D03*
X15478138Y-11996886D03*
D32*
X70478186Y-16359390D03*
X70478186Y-17359390D03*
X70478186Y-18359390D03*
X70478186Y-19359390D03*
D33*
X74503186Y-14859390D03*
X74503186Y-20859390D03*
D34*
X157211075Y-85725072D03*
X170211075Y-85725072D03*
D28*
X110537592Y-89296950D03*
X108537592Y-89296950D03*
X93059454Y-71437560D03*
X95059454Y-71437560D03*
M02*
